<svg width="32" height="24" viewBox="0 0 32 24" fill="none" xmlns="http://www.w3.org/2000/svg">
<path fill-rule="evenodd" clip-rule="evenodd" d="M6.25 13.25V20.1682C6.25 21.1109 7.25388 21.7144 8.08644 21.2721L22.5663 13.5797C22.7913 13.4601 22.9595 13.2883 23.0702 13.0908C23.3357 14.1864 24.3228 15 25.5 15C26.6194 15 27.567 14.2643 27.8855 13.25H30C30.4142 13.25 30.75 12.9142 30.75 12.5C30.75 12.0858 30.4142 11.75 30 11.75H27.8855C27.567 10.7357 26.6194 9.99999 25.5 9.99999C24.3349 9.99999 23.3559 10.797 23.0786 11.8756C22.9768 11.6885 22.8235 11.5229 22.618 11.401L8.13817 2.80354C7.30493 2.30881 6.25 2.90932 6.25 3.87836V11.75H2C1.58579 11.75 1.25 12.0858 1.25 12.5C1.25 12.9142 1.58579 13.25 2 13.25H6.25ZM7.75 4.31755L21.4698 12.4637L7.75 19.7523V4.31755ZM25.5 13.5C26.0523 13.5 26.5 13.0523 26.5 12.5C26.5 11.9477 26.0523 11.5 25.5 11.5C24.9477 11.5 24.5 11.9477 24.5 12.5C24.5 13.0523 24.9477 13.5 25.5 13.5Z" fill="#1D3131"/>
</svg>
