<svg width="32" height="24" viewBox="0 0 32 24" fill="none" xmlns="http://www.w3.org/2000/svg">
<path fill-rule="evenodd" clip-rule="evenodd" d="M1.25 9C1.25 8.58578 1.58579 8.25 2 8.25H6.5C6.91421 8.25 7.25 8.58578 7.25 9C7.25 9.41421 6.91421 9.75 6.5 9.75H2C1.58579 9.75 1.25 9.41421 1.25 9Z" fill="#1D3131"/>
<path fill-rule="evenodd" clip-rule="evenodd" d="M1.25 16C1.25 15.5858 1.58579 15.25 2 15.25H6.5C6.91421 15.25 7.25 15.5858 7.25 16C7.25 16.4142 6.91421 16.75 6.5 16.75H2C1.58579 16.75 1.25 16.4142 1.25 16Z" fill="#1D3131"/>
<path fill-rule="evenodd" clip-rule="evenodd" d="M26.75 11.75H30C30.4142 11.75 30.75 12.0858 30.75 12.5C30.75 12.9142 30.4142 13.25 30 13.25H26.75V11.75Z" fill="#1D3131"/>
<path fill-rule="evenodd" clip-rule="evenodd" d="M5.36277 3.75128C6.28955 5.38017 7.74993 8.56783 7.74993 12.5C7.74993 16.1832 6.47 18.8115 5.52651 20.2484C9.66569 20.2356 13.7611 20.1217 16.8931 19.1486C18.5616 18.6303 19.8912 17.8863 20.8029 16.8406C21.7021 15.8095 22.2499 14.4224 22.2499 12.5C22.2499 10.3043 21.6857 8.71724 20.766 7.54528C19.8401 6.36537 18.4997 5.53752 16.8307 4.96375C13.6729 3.87817 9.53987 3.76293 5.36277 3.75128ZM3.65148 3.8196C3.23506 3.17532 3.66636 2.24976 4.49962 2.25006C8.89936 2.25164 13.66 2.28759 17.3184 3.54523C19.1662 4.18048 20.7885 5.14423 21.9461 6.61924C23.1098 8.10221 23.7499 10.0334 23.7499 12.5C23.7499 14.7329 23.1029 16.4854 21.9335 17.8265C20.7767 19.1531 19.1641 20.0138 17.3381 20.5811C13.714 21.707 8.99247 21.7479 4.60335 21.7499C4.14526 21.7501 3.82069 21.4567 3.68019 21.1493C3.54095 20.8447 3.5325 20.4228 3.8031 20.0796C4.5495 19.1328 6.24993 16.5335 6.24993 12.5C6.24993 8.24953 4.36392 4.92189 3.65148 3.8196Z" fill="#1D3131"/>
<path fill-rule="evenodd" clip-rule="evenodd" d="M25.5 13.5C26.0523 13.5 26.5 13.0523 26.5 12.5C26.5 11.9477 26.0523 11.5 25.5 11.5C24.9477 11.5 24.5 11.9477 24.5 12.5C24.5 13.0523 24.9477 13.5 25.5 13.5ZM25.5 15C26.8807 15 28 13.8807 28 12.5C28 11.1193 26.8807 10 25.5 10C24.1193 10 23 11.1193 23 12.5C23 13.8807 24.1193 15 25.5 15Z" fill="#1D3131"/>
</svg>
