<svg width="32" height="24" viewBox="0 0 32 24" fill="none" xmlns="http://www.w3.org/2000/svg">
<path fill-rule="evenodd" clip-rule="evenodd" d="M9.84152 2.26167C8.88091 2.23492 8.29832 3.23194 8.66869 4.04807C9.36718 5.5872 10.8214 9.20288 10.8214 12.4882C10.8214 15.6108 9.50306 18.514 8.7858 19.8559C8.35383 20.6641 8.90147 21.7503 9.9085 21.7411C13.6478 21.7069 17.3068 21.1342 20.059 19.7195C22.6424 18.3916 24.4594 16.2941 24.7182 13.25H28C28.4142 13.25 28.75 12.9142 28.75 12.5C28.75 12.0858 28.4142 11.75 28 11.75H24.7205C24.4706 8.67056 22.6575 6.37771 20.0715 4.83625C17.3071 3.18844 13.6241 2.36698 9.84152 2.26167ZM12.3214 12.4882C12.3214 9.10333 10.9494 5.51147 10.189 3.7746C13.6663 3.91941 16.9184 4.70299 19.3035 6.12471C21.7531 7.58494 23.25 9.68432 23.25 12.4882C23.25 15.2637 21.7853 17.1456 19.3732 18.3854C17.0065 19.602 13.7683 20.1673 10.2796 20.2356C11.0642 18.6973 12.3214 15.7336 12.3214 12.4882Z" fill="#1D3131"/>
<path d="M7.16902 3.161C6.9818 2.79152 6.5305 2.64376 6.16101 2.83097C5.79158 3.01816 5.64381 3.46934 5.83089 3.8388L5.83192 3.84084L5.83639 3.84976L5.85547 3.88821C5.87255 3.92282 5.89813 3.97516 5.931 4.04378C5.99674 4.18105 6.09155 4.38331 6.20574 4.63917C6.43434 5.15138 6.73949 5.87584 7.04443 6.72191C7.21767 7.20259 7.38882 7.71709 7.54535 8.24999H4C3.58579 8.24999 3.25 8.58578 3.25 8.99999C3.25 9.41421 3.58579 9.74999 4 9.74999H7.92932C8.12472 10.6576 8.25 11.5766 8.25 12.4392C8.25 13.3847 8.09911 14.3428 7.87089 15.25H4C3.58579 15.25 3.25 15.5858 3.25 16C3.25 16.4142 3.58579 16.75 4 16.75H7.4153C7.29973 17.0767 7.17869 17.3899 7.05671 17.6855C6.75505 18.4165 6.45332 19.0267 6.22776 19.4529C6.1151 19.6657 6.02179 19.8319 5.95747 19.9437C5.92532 19.9995 5.90044 20.0416 5.88405 20.0691L5.86598 20.0992L5.862 20.1057L5.86142 20.1067C5.64439 20.4592 5.75397 20.9212 6.10644 21.1384C6.45904 21.3558 6.92109 21.2462 7.13844 20.8936L6.5 20.5C7.13844 20.8936 7.13834 20.8937 7.13844 20.8936L7.13958 20.8917L7.14162 20.8884L7.14837 20.8773L7.17211 20.8378C7.19233 20.8039 7.22116 20.755 7.25737 20.6922C7.32977 20.5664 7.43177 20.3846 7.55349 20.1546C7.79668 19.6952 8.11995 19.0412 8.44329 18.2577C9.08491 16.7028 9.75 14.5828 9.75 12.4392C9.75 10.3052 9.08956 7.97241 8.45557 6.21332C8.13551 5.32525 7.81566 4.56591 7.57551 4.02783C7.45533 3.75855 7.35482 3.54406 7.28385 3.39586C7.24835 3.32175 7.22022 3.26417 7.20068 3.22456L7.17795 3.17878L7.17171 3.16633L7.16991 3.16277L7.16902 3.161C7.16895 3.16086 7.16902 3.161 6.5 3.49999L7.16902 3.161Z" fill="#1D3131"/>
</svg>
