<svg width="32" height="24" viewBox="0 0 32 24" fill="none" xmlns="http://www.w3.org/2000/svg">
<path fill-rule="evenodd" clip-rule="evenodd" d="M5.78391 4.13473C5.33735 3.31119 5.91517 2.24432 6.9054 2.25462C11.3792 2.30114 15.7858 2.71201 19.0943 4.15704C20.7609 4.88493 22.1841 5.88997 23.1892 7.27499C24.0785 8.5003 24.6114 9.98313 24.7264 11.75H28C28.4142 11.75 28.75 12.0858 28.75 12.5C28.75 12.9142 28.4142 13.25 28 13.25H24.7247C24.6065 14.9886 24.0772 16.4188 23.187 17.5738C22.1763 18.8851 20.749 19.7791 19.0912 20.391C15.8072 21.6031 11.4273 21.7731 6.99894 21.7478C5.95393 21.7418 5.41795 20.5701 5.93345 19.7607C6.36922 19.0764 6.97114 18.0188 7.46344 16.75H4C3.58579 16.75 3.25 16.4142 3.25 16C3.25 15.5858 3.58579 15.25 4 15.25H7.95437C8.18633 14.3749 8.33572 13.4412 8.33572 12.4883C8.33572 11.5849 8.2021 10.6551 7.99107 9.75001H4C3.58579 9.75001 3.25 9.41423 3.25 9.00001C3.25 8.5858 3.58579 8.25001 4 8.25001H7.56971C7.00715 6.52406 6.26085 5.01432 5.78391 4.13473ZM7.28364 3.75963C8.19859 5.50685 9.83572 9.09386 9.83572 12.4883C9.83572 15.7412 8.33795 18.7024 7.39601 20.2495C11.6981 20.2618 15.6647 20.0568 18.5718 18.9838C20.0533 18.437 21.2101 17.6816 21.9989 16.6581C22.7814 15.6428 23.25 14.3013 23.25 12.4883C23.25 10.6686 22.7776 9.26165 21.9752 8.15603C21.1676 7.04313 19.9878 6.18412 18.4939 5.53165C15.5706 4.25485 11.5811 3.82613 7.28364 3.75963Z" fill="#1D3131"/>
</svg>
