<svg width="32" height="24" viewBox="0 0 32 24" fill="none" xmlns="http://www.w3.org/2000/svg">
<path fill-rule="evenodd" clip-rule="evenodd" d="M3.5 8.24999H6.75V3.5C6.75 2.80931 7.31176 2.24733 8.00528 2.25149C12.415 2.2779 16.6791 2.66042 19.8596 4.10403C21.4646 4.83251 22.8238 5.8442 23.7786 7.24214C24.6212 8.47598 25.1204 9.96909 25.2279 11.75H28.5C28.9142 11.75 29.25 12.0858 29.25 12.5C29.25 12.9142 28.9142 13.25 28.5 13.25H25.2271C25.1175 15.0155 24.6172 16.4634 23.764 17.6301C22.7953 18.955 21.4201 19.8509 19.8123 20.4573C16.6353 21.6555 12.3702 21.7841 7.988 21.744C7.30288 21.7377 6.75 21.1803 6.75 20.4947V16.75H3.5C3.08579 16.75 2.75 16.4142 2.75 16C2.75 15.5858 3.08579 15.25 3.5 15.25H6.75V9.74999H3.5C3.08579 9.74999 2.75 9.41421 2.75 8.99999C2.75 8.58578 3.08579 8.24999 3.5 8.24999ZM8.25 3.75339V20.2461C12.5693 20.2787 16.4615 20.1179 19.283 19.0538C20.7014 18.5189 21.8024 17.7716 22.5532 16.7447C23.3009 15.7223 23.75 14.3563 23.75 12.4941C23.75 10.6333 23.3013 9.20293 22.5399 8.08812C21.7757 6.96929 20.6597 6.11447 19.2397 5.46991C16.4255 4.19258 12.5381 3.79313 8.25 3.75339Z" fill="#1D3131"/>
</svg>
