<svg width="32" height="24" viewBox="0 0 32 24" fill="none" xmlns="http://www.w3.org/2000/svg">
<path fill-rule="evenodd" clip-rule="evenodd" d="M5.25 8.24999H2C1.58579 8.24999 1.25 8.58578 1.25 8.99999C1.25 9.41421 1.58579 9.74999 2 9.74999H5.25V15.25H2C1.58579 15.25 1.25 15.5858 1.25 16C1.25 16.4142 1.58579 16.75 2 16.75H5.25V20.4947C5.25 21.1803 5.80288 21.7377 6.488 21.744C10.8702 21.7841 15.1353 21.6555 18.3123 20.4573C19.9201 19.8509 21.2953 18.955 22.264 17.6301C22.9656 16.6707 23.4286 15.5212 23.6319 14.1614C24.0898 14.6759 24.757 15 25.5 15C26.6194 15 27.567 14.2643 27.8855 13.25H30C30.4142 13.25 30.75 12.9142 30.75 12.5C30.75 12.0858 30.4142 11.75 30 11.75H27.8855C27.567 10.7357 26.6194 9.99999 25.5 9.99999C24.7587 9.99999 24.0927 10.3227 23.6349 10.8352C23.4338 9.45096 22.9728 8.25858 22.2786 7.24214C21.3238 5.8442 19.9646 4.83251 18.3596 4.10403C15.1791 2.66042 10.915 2.2779 6.50528 2.25149C5.81176 2.24733 5.25 2.80931 5.25 3.5V8.24999ZM6.75 3.75339C11.0381 3.79313 14.9255 4.19258 17.7397 5.46991C19.1597 6.11447 20.2757 6.96929 21.0399 8.08812C21.8013 9.20293 22.25 10.6333 22.25 12.4941C22.25 14.3563 21.8009 15.7223 21.0532 16.7447C20.3024 17.7716 19.2014 18.5189 17.783 19.0538C14.9615 20.1179 11.0693 20.2787 6.75 20.2461V3.75339ZM25.5 13.5C26.0523 13.5 26.5 13.0523 26.5 12.5C26.5 11.9477 26.0523 11.5 25.5 11.5C24.9477 11.5 24.5 11.9477 24.5 12.5C24.5 13.0523 24.9477 13.5 25.5 13.5Z" fill="#1D3131"/>
</svg>
